<svg version="1.1" id="Layer_1" xmlns="http://www.w3.org/2000/svg" xmlns:xlink="http://www.w3.org/1999/xlink" x="0px" y="0px"
	 width="100%" viewBox="0 0 1024 1024" enable-background="new 0 0 1024 1024" xml:space="preserve">
<path fill="#FEFFFF" opacity="1.000000" stroke="none" 
	d="
M948.000000,1025.000000 
	C632.000000,1025.000000 316.500000,1025.000000 1.000000,1025.000000 
	C1.000000,683.666687 1.000000,342.333344 1.000000,1.000000 
	C342.333344,1.000000 683.666687,1.000000 1025.000000,1.000000 
	C1025.000000,342.333344 1025.000000,683.666687 1025.000000,1025.000000 
	C999.500000,1025.000000 974.000000,1025.000000 948.000000,1025.000000 
M201.076721,469.799042 
	C199.774887,469.407104 198.473038,469.015137 197.171219,468.623169 
	C197.188171,470.541412 197.205124,472.459686 197.348511,475.149384 
	C197.305496,479.077881 197.262482,483.006378 196.668243,487.152954 
	C194.164520,489.099945 194.588181,490.710571 197.483536,492.957428 
	C197.483536,512.176331 197.483536,531.395264 197.483536,551.397949 
	C202.375519,549.090515 206.226303,547.274170 210.077103,545.457825 
	C210.328735,545.912842 210.580383,546.367920 210.832016,546.822937 
	C207.764069,548.758789 204.696121,550.694641 200.676834,553.230774 
	C225.652145,559.707825 249.479034,565.887024 273.931183,572.228394 
	C273.931183,560.251953 273.931183,549.131714 274.626984,537.994141 
	C275.090942,537.995178 275.554932,537.996155 276.164612,538.925598 
	C276.164612,549.646484 276.164612,560.367432 276.164612,572.101257 
	C290.307251,563.065491 303.661224,554.533569 317.748718,545.949585 
	C319.382721,545.225403 321.290649,544.819214 322.586548,543.702637 
	C324.529053,542.028809 324.790924,540.262451 321.245148,539.117920 
	C321.294525,537.425842 321.343903,535.733704 321.971680,533.893250 
	C321.781128,532.914551 321.590576,531.935852 321.243500,530.038757 
	C321.243500,509.334656 321.243500,488.630554 321.243500,467.060699 
	C318.533905,468.361664 316.817413,469.285492 315.023529,470.020264 
	C313.063660,470.823059 311.032135,471.450867 309.208160,471.565033 
	C309.471191,471.008942 309.734222,470.452850 310.487976,469.411133 
	C312.870026,468.174072 315.252075,466.937012 317.833038,465.596619 
	C317.189240,465.056976 317.075928,464.882050 316.933655,464.854034 
	C294.962280,460.524109 272.988831,456.204803 250.854752,451.184357 
	C244.608978,446.375732 240.423141,447.291077 238.337601,454.152557 
	C225.978653,459.629089 213.619720,465.105621 201.076721,469.799042 
M578.118713,541.948303 
	C573.045349,549.816895 573.481201,551.020508 582.444824,553.859131 
	C583.078430,554.059814 583.727173,554.213196 584.369690,554.385620 
	C604.541870,559.799500 616.723633,550.770691 616.933838,530.108337 
	C617.055725,518.132446 616.979980,506.153900 616.900513,494.177124 
	C616.885620,491.928314 617.990784,488.690704 613.773865,488.889465 
	C610.342712,489.051178 605.551636,486.987061 605.954712,493.731873 
	C598.258423,486.627319 587.797363,485.824524 580.326538,491.538940 
	C571.261658,498.472687 568.702698,513.526062 574.682373,524.742004 
	C580.017029,534.748108 589.004089,536.740356 604.861145,531.432007 
	C607.285522,539.555481 603.431519,546.155273 595.338440,545.862793 
	C589.763062,545.661255 584.270508,543.167480 578.118713,541.948303 
M500.949951,533.618958 
	C509.677612,539.207825 518.117798,538.543823 526.194336,532.038635 
	C528.381165,539.059265 533.320068,535.426819 537.517944,536.123657 
	C537.517944,517.901611 537.524170,500.293823 537.512329,482.686035 
	C537.510132,479.360046 537.454407,476.033783 537.390747,472.708282 
	C537.299500,467.942841 533.639648,469.584198 531.147217,469.356232 
	C528.467590,469.111145 526.173889,469.417999 526.266113,473.163513 
	C526.426819,479.686615 526.310852,486.216553 526.310852,493.350708 
	C516.227600,485.681396 505.045563,486.243011 498.297821,494.083008 
	C489.165527,504.693634 490.160370,523.448730 500.949951,533.618958 
M436.665619,511.673218 
	C436.767181,521.245178 438.680603,530.090881 448.020569,534.991699 
	C456.090302,539.226013 463.761780,537.851929 470.765167,531.616882 
	C472.329376,539.235718 477.613617,535.273987 481.422607,536.086182 
	C481.691620,535.094849 481.933563,534.619324 481.933411,534.143860 
	C481.926392,513.854919 481.855042,493.565948 481.902527,473.277191 
	C481.914154,468.311859 478.403534,469.475800 475.601501,469.312592 
	C472.717468,469.144623 470.375732,469.325653 470.556763,473.401428 
	C470.831268,479.581573 470.628540,485.782898 470.628540,492.517365 
	C456.319916,484.235962 444.150085,487.604736 438.948792,500.676971 
	C437.683624,503.856689 437.414093,507.432587 436.665619,511.673218 
M403.156738,539.458740 
	C401.622314,543.637085 398.966095,546.574829 394.201141,545.455322 
	C389.385498,544.323975 390.144562,547.778259 389.466797,550.304382 
	C388.594543,553.555237 390.499451,554.386414 393.105591,554.837158 
	C401.517334,556.292114 408.704041,552.709106 412.063507,544.564392 
	C416.875641,532.897705 421.225769,521.040710 425.786530,509.270111 
	C428.288055,502.814117 430.817078,496.368774 433.327606,489.934174 
	C425.337036,486.699249 422.301727,487.924225 419.768646,495.118408 
	C416.953796,503.112732 414.223114,511.136749 411.418610,519.134766 
	C411.035980,520.225830 410.438141,521.241455 409.612457,522.982727 
	C405.986603,513.011780 402.687805,503.963257 399.406311,494.908478 
	C396.988861,488.237946 393.169891,486.797516 385.955261,490.041626 
	C386.142639,490.779388 386.255707,491.589752 386.549713,492.328094 
	C391.958282,505.911652 397.437592,519.467407 402.752472,533.087402 
	C403.422852,534.805359 403.253174,536.851074 403.156738,539.458740 
M784.609619,516.824036 
	C786.909058,529.271118 794.810791,536.518555 806.804993,537.181641 
	C818.470032,537.826477 827.990295,531.368469 831.141418,520.673035 
	C834.622742,508.856842 830.134277,496.066864 820.282227,490.745026 
	C811.900269,486.217285 803.196960,486.247711 795.126404,491.293427 
	C786.107971,496.931793 783.698120,505.877350 784.609619,516.824036 
M743.974915,525.465942 
	C743.989807,519.303894 743.939026,513.140808 744.038940,506.980133 
	C744.130066,501.362305 748.051208,497.837677 754.160706,497.690735 
	C760.667664,497.534241 763.456543,499.963898 763.655518,506.398315 
	C763.871643,513.387634 763.808411,520.385376 763.892578,527.379089 
	C764.007751,536.955994 764.018311,536.958435 773.619690,535.927429 
	C773.933105,535.893738 774.228149,535.688538 774.603516,535.533569 
	C774.603516,523.787231 775.225342,511.969238 774.390503,500.255005 
	C773.808777,492.091644 767.837524,487.963562 759.524048,487.721771 
	C753.484314,487.546143 748.245728,489.396667 744.142090,494.581696 
	C742.576599,488.072235 740.515076,487.263336 733.297974,489.465149 
	C733.297974,504.880859 733.297974,520.270874 733.297974,535.593872 
	C744.077393,537.088684 744.077332,537.088684 743.980774,526.949646 
	C743.979187,526.783081 743.979248,526.616577 743.974915,525.465942 
M644.339966,516.911865 
	C645.292664,517.207031 646.255554,517.473022 647.196167,517.802612 
	C650.201782,518.855835 653.837708,519.750671 652.983582,523.948364 
	C652.139648,528.095764 648.274536,528.723389 645.020691,528.043823 
	C640.452942,527.089722 636.088989,525.159790 630.632812,523.305786 
	C629.534607,524.794617 627.766968,527.190857 626.063782,529.499756 
	C633.717224,537.142639 646.914795,539.552307 655.731934,535.181213 
	C660.856934,532.640442 664.087830,528.682800 664.070374,522.633667 
	C664.052979,516.596252 661.105774,512.496155 655.599060,510.358521 
	C651.732178,508.857422 647.550232,508.095215 643.821838,506.338989 
	C641.777100,505.375824 639.016357,503.067413 638.975708,501.310150 
	C638.890564,497.631683 642.439209,496.524811 645.535034,496.994110 
	C649.700378,497.625519 653.747131,499.039703 658.244568,500.223145 
	C664.286072,494.915466 664.012756,492.524445 656.169312,489.593231 
	C649.399841,487.063385 642.501160,486.715057 635.718567,489.607330 
	C630.024658,492.035278 627.404297,496.646790 627.439575,502.665619 
	C627.473755,508.480225 630.553284,512.344177 635.972473,514.303345 
	C638.469543,515.206116 641.034546,515.921204 644.339966,516.911865 
M689.017822,526.724792 
	C688.346619,525.816223 687.108398,524.917542 687.092407,523.997681 
	C686.943359,515.416870 687.004089,506.832458 687.004089,498.218811 
	C690.954956,498.036743 694.367798,497.879456 697.807251,497.720917 
	C697.807251,494.492004 697.807251,491.791779 697.807251,488.578857 
	C693.920227,488.578857 690.519714,488.578857 686.717651,488.578857 
	C686.717651,485.251709 686.619141,482.435059 686.739807,479.627838 
	C686.940247,474.966125 683.579712,475.925842 680.890320,475.794678 
	C677.976440,475.652557 675.476501,475.871552 675.817749,479.927399 
	C676.049683,482.683441 675.862122,485.474762 675.862122,488.058502 
	C672.679199,489.565887 668.135803,486.948273 667.879150,493.076721 
	C667.602051,499.693298 672.585144,497.426208 675.788452,498.690155 
	C675.788452,506.764069 675.672119,514.751038 675.816833,522.733276 
	C676.011841,533.487732 681.987427,538.431335 692.702698,536.936707 
	C700.129517,535.900696 701.434753,532.772949 697.352722,526.541199 
	C694.729248,526.705688 692.281433,526.859192 689.017822,526.724792 
M354.647980,494.855652 
	C354.653198,507.340302 354.816437,519.828003 354.575958,532.307922 
	C354.494354,536.543396 356.908539,536.448364 359.662781,536.244568 
	C362.335419,536.046936 366.040527,537.585938 365.906403,532.389954 
	C365.713165,524.903931 365.792023,517.409241 365.845001,509.918915 
	C365.890045,503.547668 370.403900,499.015686 376.779785,498.820801 
	C378.420441,498.770660 380.063965,498.813263 382.794983,498.813263 
	C382.573700,495.301300 383.196777,491.499939 381.875702,488.577362 
	C380.828430,486.260529 373.265137,487.967621 370.056122,490.853485 
	C368.679596,492.091461 367.494507,493.542297 365.292999,495.885803 
	C366.196106,488.276672 362.020203,488.660889 357.830658,488.684875 
	C353.613159,488.709015 354.774445,491.645142 354.647980,494.855652 
M557.256836,488.746124 
	C550.567566,488.768585 550.565063,488.768585 550.586548,495.591370 
	C550.623169,507.237823 550.649475,518.884338 550.716675,530.530640 
	C550.726868,532.295227 550.933716,534.058716 551.051025,535.845215 
	C554.841858,535.845215 558.091309,535.845215 561.698425,535.845215 
	C561.698425,520.862671 561.768005,506.254333 561.542908,491.650513 
	C561.527710,490.669556 559.284302,489.722992 557.256836,488.746124 
M719.405884,524.192627 
	C713.597351,521.475037 708.421570,522.918579 708.100403,527.904724 
	C707.931152,530.532471 709.427429,534.099548 711.406738,535.829590 
	C714.061218,538.149841 717.825378,537.501160 720.301208,534.613525 
	C723.084351,531.367615 722.584839,527.925476 719.405884,524.192627 
M552.238525,481.369690 
	C558.125427,483.636841 562.923950,481.805389 562.671631,476.888794 
	C562.543945,474.402496 560.653259,470.787415 558.628906,469.959961 
	C556.595825,469.128906 552.669556,470.361206 550.895996,472.065857 
	C548.239807,474.618835 548.858887,478.162109 552.238525,481.369690 
z"/>
<path fill="#2579BE" opacity="1.000000" stroke="none" 
	d="
M273.931183,538.011475 
	C273.931183,549.131714 273.931183,560.251953 273.931183,572.228394 
	C249.479034,565.887024 225.652145,559.707825 200.676834,553.230774 
	C204.696121,550.694641 207.764069,548.758789 210.832016,546.822937 
	C210.580383,546.367920 210.328735,545.912842 210.077103,545.457825 
	C206.226303,547.274170 202.375519,549.090515 197.483536,551.397949 
	C197.483536,531.395264 197.483536,512.176331 197.513870,492.102173 
	C197.435959,489.809540 197.327713,488.372223 197.219482,486.934875 
	C197.262482,483.006378 197.305496,479.077881 197.659393,474.619263 
	C212.600174,477.189453 227.246567,480.217438 241.826752,483.536194 
	C242.918610,483.784729 244.182266,486.075500 244.261307,487.479126 
	C244.560715,492.795898 244.336273,498.139984 244.463196,503.470123 
	C244.499130,504.979523 245.063858,506.476349 245.386078,507.978943 
	C245.876755,507.915894 246.367447,507.852844 246.858124,507.789795 
	C246.858124,500.259186 246.858124,492.728546 246.858124,484.391846 
	C255.701416,486.332458 263.791626,488.014832 271.803162,490.012939 
	C272.585510,490.208038 273.293884,492.334290 273.337128,493.588287 
	C273.584015,500.747437 273.648346,507.913635 273.716156,515.078003 
	C273.765930,520.339355 273.725891,525.601562 273.725891,531.292603 
	C267.686951,530.141907 262.343658,529.123779 256.623627,527.983154 
	C253.260696,527.064392 250.274475,526.268188 247.064377,525.412231 
	C247.064377,522.589233 247.064377,520.126282 247.064377,517.663330 
	C247.064377,515.196899 247.064377,512.730469 247.064377,510.264038 
	C246.339310,510.249603 245.614243,510.235168 244.889175,510.220734 
	C244.731201,513.004333 244.134201,515.848572 244.508438,518.558716 
	C245.243912,523.885071 243.460922,527.459534 238.152802,529.563843 
	C232.058029,532.950073 226.273575,536.196594 220.172852,539.584778 
	C217.318192,541.205750 214.779816,542.685059 212.241425,544.164429 
	C212.535324,544.680664 212.829224,545.196899 213.123123,545.713135 
	C215.952637,544.097717 218.782150,542.482361 221.964081,540.808716 
	C228.084488,537.458801 233.852478,534.167114 239.984421,530.819519 
	C243.833374,528.315430 247.517517,527.741882 251.605972,529.201233 
	C253.620636,529.920349 255.809891,530.150391 258.242126,530.758545 
	C262.223083,531.753357 265.848846,532.821350 269.551636,533.356079 
	C272.492249,533.780823 273.833862,535.175293 273.931183,538.011475 
z"/>
<path fill="#2579BE" opacity="1.000000" stroke="none" 
	d="
M321.393280,534.041626 
	C321.343903,535.733704 321.294525,537.425842 321.187012,539.873779 
	C320.647705,540.956421 320.087738,541.643433 319.696686,541.557922 
	C306.081146,538.580322 292.463196,535.605835 278.914001,532.346558 
	C277.822906,532.084106 276.527039,529.808533 276.498169,528.443665 
	C276.248779,516.653015 276.161621,504.855011 276.340027,493.063965 
	C276.362823,491.557770 277.846527,489.476227 279.235596,488.690582 
	C285.585968,485.098969 292.190216,481.959930 298.608856,478.484039 
	C302.178772,476.550842 305.563599,474.275848 309.031860,472.154907 
	C311.032135,471.450867 313.063660,470.823059 315.023529,470.020264 
	C316.817413,469.285492 318.533905,468.361664 321.243500,467.060699 
	C321.243500,488.630554 321.243500,509.334656 321.216095,530.876465 
	C321.256897,532.489929 321.325073,533.265808 321.393280,534.041626 
z"/>
<path fill="#2778BB" opacity="1.000000" stroke="none" 
	d="
M578.429810,541.823242 
	C584.270508,543.167480 589.763062,545.661255 595.338440,545.862793 
	C603.431519,546.155273 607.285522,539.555481 604.861145,531.432007 
	C589.004089,536.740356 580.017029,534.748108 574.682373,524.742004 
	C568.702698,513.526062 571.261658,498.472687 580.326538,491.538940 
	C587.797363,485.824524 598.258423,486.627319 605.954712,493.731873 
	C605.551636,486.987061 610.342712,489.051178 613.773865,488.889465 
	C617.990784,488.690704 616.885620,491.928314 616.900513,494.177124 
	C616.979980,506.153900 617.055725,518.132446 616.933838,530.108337 
	C616.723633,550.770691 604.541870,559.799500 584.369690,554.385620 
	C583.727173,554.213196 583.078430,554.059814 582.444824,553.859131 
	C573.481201,551.020508 573.045349,549.816895 578.429810,541.823242 
M588.688110,498.923340 
	C581.673035,502.472137 581.733704,515.379578 585.458252,520.899048 
	C588.230164,525.006836 593.935852,526.765015 599.234131,524.994690 
	C604.088074,523.372864 606.418823,520.041077 605.972595,514.784363 
	C605.749146,512.151367 605.787048,509.475677 605.952087,506.834625 
	C606.268860,501.765747 603.502563,498.842041 599.024963,498.038635 
	C595.926270,497.482605 592.578979,498.311707 588.688110,498.923340 
z"/>
<path fill="#2778BB" opacity="1.000000" stroke="none" 
	d="
M500.660950,533.402344 
	C490.160370,523.448730 489.165527,504.693634 498.297821,494.083008 
	C505.045563,486.243011 516.227600,485.681396 526.310852,493.350708 
	C526.310852,486.216553 526.426819,479.686615 526.266113,473.163513 
	C526.173889,469.417999 528.467590,469.111145 531.147217,469.356232 
	C533.639648,469.584198 537.299500,467.942841 537.390747,472.708282 
	C537.454407,476.033783 537.510132,479.360046 537.512329,482.686035 
	C537.524170,500.293823 537.517944,517.901611 537.517944,536.123657 
	C533.320068,535.426819 528.381165,539.059265 526.194336,532.038635 
	C518.117798,538.543823 509.677612,539.207825 500.660950,533.402344 
M526.024292,514.416565 
	C526.039917,511.587250 525.850037,508.738037 526.121399,505.933472 
	C526.490906,502.114685 524.490051,500.042145 521.401245,498.590851 
	C513.841858,495.039062 505.576569,499.072571 504.113312,507.250610 
	C503.594025,510.153107 503.618988,513.238098 503.921326,516.185791 
	C504.684784,523.630127 509.679260,528.187012 516.320007,527.868774 
	C523.390320,527.529968 526.016357,524.146240 526.024292,514.416565 
z"/>
<path fill="#2778BB" opacity="1.000000" stroke="none" 
	d="
M436.676208,511.249756 
	C437.414093,507.432587 437.683624,503.856689 438.948792,500.676971 
	C444.150085,487.604736 456.319916,484.235962 470.628540,492.517365 
	C470.628540,485.782898 470.831268,479.581573 470.556763,473.401428 
	C470.375732,469.325653 472.717468,469.144623 475.601501,469.312592 
	C478.403534,469.475800 481.914154,468.311859 481.902527,473.277191 
	C481.855042,493.565948 481.926392,513.854919 481.933411,534.143860 
	C481.933563,534.619324 481.691620,535.094849 481.422607,536.086182 
	C477.613617,535.273987 472.329376,539.235718 470.765167,531.616882 
	C463.761780,537.851929 456.090302,539.226013 448.020569,534.991699 
	C438.680603,530.090881 436.767181,521.245178 436.676208,511.249756 
M470.247314,503.987732 
	C469.697571,499.648682 466.342834,498.457428 462.858582,497.840118 
	C458.377533,497.046234 454.195374,497.812836 451.179199,501.717224 
	C447.075409,507.029602 447.013824,518.096375 451.042114,523.468262 
	C453.988068,527.396667 459.042969,528.778992 464.056976,527.206665 
	C468.955750,525.670532 470.853455,522.491699 470.413300,517.388428 
	C470.056549,513.251831 470.302307,509.063263 470.247314,503.987732 
z"/>
<path fill="#2579BE" opacity="1.000000" stroke="none" 
	d="
M251.015442,451.885010 
	C272.988831,456.204803 294.962280,460.524109 316.933655,464.854034 
	C317.075928,464.882050 317.189240,465.056976 317.833038,465.596619 
	C315.252075,466.937012 312.870026,468.174072 309.872498,469.657593 
	C299.063965,475.153320 288.906311,480.473541 278.644958,485.585632 
	C276.821625,486.493988 274.447601,487.204987 272.533051,486.861908 
	C265.009491,485.513947 257.542908,483.809265 250.121704,481.968781 
	C248.944824,481.676941 247.274841,480.028900 247.247681,478.971588 
	C247.017838,470.019073 247.116425,461.058167 247.116425,451.885010 
	C248.738251,451.885010 249.876846,451.885010 251.015442,451.885010 
z"/>
<path fill="#2778BB" opacity="1.000000" stroke="none" 
	d="
M403.314728,539.101807 
	C403.253174,536.851074 403.422852,534.805359 402.752472,533.087402 
	C397.437592,519.467407 391.958282,505.911652 386.549713,492.328094 
	C386.255707,491.589752 386.142639,490.779388 385.955261,490.041626 
	C393.169891,486.797516 396.988861,488.237946 399.406311,494.908478 
	C402.687805,503.963257 405.986603,513.011780 409.612457,522.982727 
	C410.438141,521.241455 411.035980,520.225830 411.418610,519.134766 
	C414.223114,511.136749 416.953796,503.112732 419.768646,495.118408 
	C422.301727,487.924225 425.337036,486.699249 433.327606,489.934174 
	C430.817078,496.368774 428.288055,502.814117 425.786530,509.270111 
	C421.225769,521.040710 416.875641,532.897705 412.063507,544.564392 
	C408.704041,552.709106 401.517334,556.292114 393.105591,554.837158 
	C390.499451,554.386414 388.594543,553.555237 389.466797,550.304382 
	C390.144562,547.778259 389.385498,544.323975 394.201141,545.455322 
	C398.966095,546.574829 401.622314,543.637085 403.314728,539.101807 
z"/>
<path fill="#2778BB" opacity="1.000000" stroke="none" 
	d="
M784.535522,516.399902 
	C783.698120,505.877350 786.107971,496.931793 795.126404,491.293427 
	C803.196960,486.247711 811.900269,486.217285 820.282227,490.745026 
	C830.134277,496.066864 834.622742,508.856842 831.141418,520.673035 
	C827.990295,531.368469 818.470032,537.826477 806.804993,537.181641 
	C794.810791,536.518555 786.909058,529.271118 784.535522,516.399902 
M818.965576,521.161926 
	C821.317627,515.522339 821.296692,509.872772 818.927856,504.259094 
	C817.079041,499.877777 813.693542,497.477753 808.970459,497.215088 
	C804.086304,496.943451 799.768311,498.699493 798.000183,503.309814 
	C796.573547,507.029846 796.028809,511.305115 796.075562,515.322693 
	C796.146545,521.424316 799.730103,525.676941 804.918579,527.176392 
	C810.439941,528.772034 814.574768,527.168823 818.965576,521.161926 
z"/>
<path fill="#2778BB" opacity="1.000000" stroke="none" 
	d="
M743.976685,525.958008 
	C743.979248,526.616577 743.979187,526.783081 743.980774,526.949646 
	C744.077332,537.088684 744.077393,537.088684 733.297974,535.593872 
	C733.297974,520.270874 733.297974,504.880859 733.297974,489.465149 
	C740.515076,487.263336 742.576599,488.072235 744.142090,494.581696 
	C748.245728,489.396667 753.484314,487.546143 759.524048,487.721771 
	C767.837524,487.963562 773.808777,492.091644 774.390503,500.255005 
	C775.225342,511.969238 774.603516,523.787231 774.603516,535.533569 
	C774.228149,535.688538 773.933105,535.893738 773.619690,535.927429 
	C764.018311,536.958435 764.007751,536.955994 763.892578,527.379089 
	C763.808411,520.385376 763.871643,513.387634 763.655518,506.398315 
	C763.456543,499.963898 760.667664,497.534241 754.160706,497.690735 
	C748.051208,497.837677 744.130066,501.362305 744.038940,506.980133 
	C743.939026,513.140808 743.989807,519.303894 743.976685,525.958008 
z"/>
<path fill="#287BBE" opacity="1.000000" stroke="none" 
	d="
M643.954346,516.816650 
	C641.034546,515.921204 638.469543,515.206116 635.972473,514.303345 
	C630.553284,512.344177 627.473755,508.480225 627.439575,502.665619 
	C627.404297,496.646790 630.024658,492.035278 635.718567,489.607330 
	C642.501160,486.715057 649.399841,487.063385 656.169312,489.593231 
	C664.012756,492.524445 664.286072,494.915466 658.244568,500.223145 
	C653.747131,499.039703 649.700378,497.625519 645.535034,496.994110 
	C642.439209,496.524811 638.890564,497.631683 638.975708,501.310150 
	C639.016357,503.067413 641.777100,505.375824 643.821838,506.338989 
	C647.550232,508.095215 651.732178,508.857422 655.599060,510.358521 
	C661.105774,512.496155 664.052979,516.596252 664.070374,522.633667 
	C664.087830,528.682800 660.856934,532.640442 655.731934,535.181213 
	C646.914795,539.552307 633.717224,537.142639 626.063782,529.499756 
	C627.766968,527.190857 629.534607,524.794617 630.632812,523.305786 
	C636.088989,525.159790 640.452942,527.089722 645.020691,528.043823 
	C648.274536,528.723389 652.139648,528.095764 652.983582,523.948364 
	C653.837708,519.750671 650.201782,518.855835 647.196167,517.802612 
	C646.255554,517.473022 645.292664,517.207031 643.954346,516.816650 
z"/>
<path fill="#287BBE" opacity="1.000000" stroke="none" 
	d="
M689.425720,526.868713 
	C692.281433,526.859192 694.729248,526.705688 697.352722,526.541199 
	C701.434753,532.772949 700.129517,535.900696 692.702698,536.936707 
	C681.987427,538.431335 676.011841,533.487732 675.816833,522.733276 
	C675.672119,514.751038 675.788452,506.764069 675.788452,498.690155 
	C672.585144,497.426208 667.602051,499.693298 667.879150,493.076721 
	C668.135803,486.948273 672.679199,489.565887 675.862122,488.058502 
	C675.862122,485.474762 676.049683,482.683441 675.817749,479.927399 
	C675.476501,475.871552 677.976440,475.652557 680.890320,475.794678 
	C683.579712,475.925842 686.940247,474.966125 686.739807,479.627838 
	C686.619141,482.435059 686.717651,485.251709 686.717651,488.578857 
	C690.519714,488.578857 693.920227,488.578857 697.807251,488.578857 
	C697.807251,491.791779 697.807251,494.492004 697.807251,497.720917 
	C694.367798,497.879456 690.954956,498.036743 687.004089,498.218811 
	C687.004089,506.832458 686.943359,515.416870 687.092407,523.997681 
	C687.108398,524.917542 688.346619,525.816223 689.425720,526.868713 
z"/>
<path fill="#E5F1F8" opacity="1.000000" stroke="none" 
	d="
M250.935089,451.534668 
	C249.876846,451.885010 248.738251,451.885010 247.116425,451.885010 
	C247.116425,461.058167 247.017838,470.019073 247.247681,478.971588 
	C247.274841,480.028900 248.944824,481.676941 250.121704,481.968781 
	C257.542908,483.809265 265.009491,485.513947 272.533051,486.861908 
	C274.447601,487.204987 276.821625,486.493988 278.644958,485.585632 
	C288.906311,480.473541 299.063965,475.153320 309.627106,469.900421 
	C309.734222,470.452850 309.471191,471.008942 309.119995,471.859955 
	C305.563599,474.275848 302.178772,476.550842 298.608856,478.484039 
	C292.190216,481.959930 285.585968,485.098969 279.235596,488.690582 
	C277.846527,489.476227 276.362823,491.557770 276.340027,493.063965 
	C276.161621,504.855011 276.248779,516.653015 276.498169,528.443665 
	C276.527039,529.808533 277.822906,532.084106 278.914001,532.346558 
	C292.463196,535.605835 306.081146,538.580322 319.696686,541.557922 
	C320.087738,541.643433 320.647705,540.956421 321.268738,540.289917 
	C324.790924,540.262451 324.529053,542.028809 322.586548,543.702637 
	C321.290649,544.819214 319.382721,545.225403 317.536377,545.675781 
	C317.144806,544.922913 317.049011,544.080078 316.774353,544.017090 
	C304.032257,541.094543 291.283569,538.197449 278.491608,535.506714 
	C277.869537,535.375793 276.852173,537.124023 276.018890,537.997192 
	C275.554932,537.996155 275.090942,537.995178 274.279083,538.002808 
	C273.833862,535.175293 272.492249,533.780823 269.551636,533.356079 
	C265.848846,532.821350 262.223083,531.753357 258.194885,530.425171 
	C257.550537,529.325134 257.275452,528.715393 257.000336,528.105652 
	C262.343658,529.123779 267.686951,530.141907 273.725891,531.292603 
	C273.725891,525.601562 273.765930,520.339355 273.716156,515.078003 
	C273.648346,507.913635 273.584015,500.747437 273.337128,493.588287 
	C273.293884,492.334290 272.585510,490.208038 271.803162,490.012939 
	C263.791626,488.014832 255.701416,486.332458 246.858124,484.391846 
	C246.858124,492.728546 246.858124,500.259186 246.858124,507.789795 
	C246.367447,507.852844 245.876755,507.915894 245.386078,507.978943 
	C245.063858,506.476349 244.499130,504.979523 244.463196,503.470123 
	C244.336273,498.139984 244.560715,492.795898 244.261307,487.479126 
	C244.182266,486.075500 242.918610,483.784729 241.826752,483.536194 
	C227.246567,480.217438 212.600174,477.189453 197.596191,474.233521 
	C197.205124,472.459686 197.188171,470.541412 197.171204,468.623169 
	C198.473038,469.015137 199.774887,469.407104 201.248108,470.510315 
	C215.569458,474.469635 229.719437,477.717651 244.177704,481.036407 
	C244.177704,470.757935 244.177704,461.462067 244.177704,451.835022 
	C242.049744,452.631195 240.510559,453.207062 238.971375,453.782959 
	C240.423141,447.291077 244.608978,446.375732 250.935089,451.534668 
z"/>
<path fill="#287BBE" opacity="1.000000" stroke="none" 
	d="
M276.091736,538.461426 
	C276.852173,537.124023 277.869537,535.375793 278.491608,535.506714 
	C291.283569,538.197449 304.032257,541.094543 316.774353,544.017090 
	C317.049011,544.080078 317.144806,544.922913 317.169617,545.701782 
	C303.661224,554.533569 290.307251,563.065491 276.164612,572.101257 
	C276.164612,560.367432 276.164612,549.646484 276.091736,538.461426 
z"/>
<path fill="#2778BC" opacity="1.000000" stroke="none" 
	d="
M354.644684,494.404907 
	C354.774445,491.645142 353.613159,488.709015 357.830658,488.684875 
	C362.020203,488.660889 366.196106,488.276672 365.292999,495.885803 
	C367.494507,493.542297 368.679596,492.091461 370.056122,490.853485 
	C373.265137,487.967621 380.828430,486.260529 381.875702,488.577362 
	C383.196777,491.499939 382.573700,495.301300 382.794983,498.813263 
	C380.063965,498.813263 378.420441,498.770660 376.779785,498.820801 
	C370.403900,499.015686 365.890045,503.547668 365.845001,509.918915 
	C365.792023,517.409241 365.713165,524.903931 365.906403,532.389954 
	C366.040527,537.585938 362.335419,536.046936 359.662781,536.244568 
	C356.908539,536.448364 354.494354,536.543396 354.575958,532.307922 
	C354.816437,519.828003 354.653198,507.340302 354.644684,494.404907 
z"/>
<path fill="#287BBE" opacity="1.000000" stroke="none" 
	d="
M238.654480,453.967773 
	C240.510559,453.207062 242.049744,452.631195 244.177704,451.835022 
	C244.177704,461.462067 244.177704,470.757935 244.177704,481.036407 
	C229.719437,477.717651 215.569458,474.469635 201.340118,470.901886 
	C213.619720,465.105621 225.978653,459.629089 238.654480,453.967773 
z"/>
<path fill="#2778BB" opacity="1.000000" stroke="none" 
	d="
M557.666992,488.753296 
	C559.284302,489.722992 561.527710,490.669556 561.542908,491.650513 
	C561.768005,506.254333 561.698425,520.862671 561.698425,535.845215 
	C558.091309,535.845215 554.841858,535.845215 551.051025,535.845215 
	C550.933716,534.058716 550.726868,532.295227 550.716675,530.530640 
	C550.649475,518.884338 550.623169,507.237823 550.586548,495.591370 
	C550.565063,488.768585 550.567566,488.768585 557.666992,488.753296 
z"/>
<path fill="#287BBE" opacity="1.000000" stroke="none" 
	d="
M719.681152,524.450745 
	C722.584839,527.925476 723.084351,531.367615 720.301208,534.613525 
	C717.825378,537.501160 714.061218,538.149841 711.406738,535.829590 
	C709.427429,534.099548 707.931152,530.532471 708.100403,527.904724 
	C708.421570,522.918579 713.597351,521.475037 719.681152,524.450745 
z"/>
<path fill="#287BBE" opacity="1.000000" stroke="none" 
	d="
M551.934937,481.148865 
	C548.858887,478.162109 548.239807,474.618835 550.895996,472.065857 
	C552.669556,470.361206 556.595825,469.128906 558.628906,469.959961 
	C560.653259,470.787415 562.543945,474.402496 562.671631,476.888794 
	C562.923950,481.805389 558.125427,483.636841 551.934937,481.148865 
z"/>
<path fill="#E5F1F8" opacity="1.000000" stroke="none" 
	d="
M196.943863,487.043915 
	C197.327713,488.372223 197.435959,489.809540 197.388504,491.656433 
	C194.588181,490.710571 194.164520,489.099945 196.943863,487.043915 
z"/>
<path fill="#E5F1F8" opacity="1.000000" stroke="none" 
	d="
M321.682495,533.967407 
	C321.325073,533.265808 321.256897,532.489929 321.294373,531.335632 
	C321.590576,531.935852 321.781128,532.914551 321.682495,533.967407 
z"/>
<path fill="#FEFFFF" opacity="1.000000" stroke="none" 
	d="
M256.623627,527.983154 
	C257.275452,528.715393 257.550537,529.325134 257.872894,530.268311 
	C255.809891,530.150391 253.620636,529.920349 251.605972,529.201233 
	C247.517517,527.741882 243.833374,528.315430 239.713440,530.442017 
	C238.873383,529.888367 238.668243,529.656189 238.463104,529.424072 
	C243.460922,527.459534 245.243912,523.885071 244.508438,518.558716 
	C244.134201,515.848572 244.731201,513.004333 244.889175,510.220734 
	C245.614243,510.235168 246.339310,510.249603 247.064377,510.264038 
	C247.064377,512.730469 247.064377,515.196899 247.064377,517.663330 
	C247.064377,520.126282 247.064377,522.589233 247.064377,525.412231 
	C250.274475,526.268188 253.260696,527.064392 256.623627,527.983154 
z"/>
<path fill="#FEFFFF" opacity="1.000000" stroke="none" 
	d="
M239.349487,530.497925 
	C233.852478,534.167114 228.084488,537.458801 221.701172,540.438843 
	C220.886948,539.899170 220.688034,539.671143 220.489136,539.443176 
	C226.273575,536.196594 232.058029,532.950073 238.152802,529.563843 
	C238.668243,529.656189 238.873383,529.888367 239.349487,530.497925 
z"/>
<path fill="#FEFFFF" opacity="1.000000" stroke="none" 
	d="
M221.348755,540.497070 
	C218.782150,542.482361 215.952637,544.097717 213.123123,545.713135 
	C212.829224,545.196899 212.535324,544.680664 212.241425,544.164429 
	C214.779816,542.685059 217.318192,541.205750 220.172852,539.584778 
	C220.688034,539.671143 220.886948,539.899170 221.348755,540.497070 
z"/>
<path fill="#F8FBFC" opacity="1.000000" stroke="none" 
	d="
M589.015442,498.722595 
	C592.578979,498.311707 595.926270,497.482605 599.024963,498.038635 
	C603.502563,498.842041 606.268860,501.765747 605.952087,506.834625 
	C605.787048,509.475677 605.749146,512.151367 605.972595,514.784363 
	C606.418823,520.041077 604.088074,523.372864 599.234131,524.994690 
	C593.935852,526.765015 588.230164,525.006836 585.458252,520.899048 
	C581.733704,515.379578 581.673035,502.472137 589.015442,498.722595 
z"/>
<path fill="#F8FBFC" opacity="1.000000" stroke="none" 
	d="
M526.022339,514.893188 
	C526.016357,524.146240 523.390320,527.529968 516.320007,527.868774 
	C509.679260,528.187012 504.684784,523.630127 503.921326,516.185791 
	C503.618988,513.238098 503.594025,510.153107 504.113312,507.250610 
	C505.576569,499.072571 513.841858,495.039062 521.401245,498.590851 
	C524.490051,500.042145 526.490906,502.114685 526.121399,505.933472 
	C525.850037,508.738037 526.039917,511.587250 526.022339,514.893188 
z"/>
<path fill="#F8FBFC" opacity="1.000000" stroke="none" 
	d="
M470.264099,504.442749 
	C470.302307,509.063263 470.056549,513.251831 470.413300,517.388428 
	C470.853455,522.491699 468.955750,525.670532 464.056976,527.206665 
	C459.042969,528.778992 453.988068,527.396667 451.042114,523.468262 
	C447.013824,518.096375 447.075409,507.029602 451.179199,501.717224 
	C454.195374,497.812836 458.377533,497.046234 462.858582,497.840118 
	C466.342834,498.457428 469.697571,499.648682 470.264099,504.442749 
z"/>
<path fill="#F8FBFC" opacity="1.000000" stroke="none" 
	d="
M818.798828,521.510498 
	C814.574768,527.168823 810.439941,528.772034 804.918579,527.176392 
	C799.730103,525.676941 796.146545,521.424316 796.075562,515.322693 
	C796.028809,511.305115 796.573547,507.029846 798.000183,503.309814 
	C799.768311,498.699493 804.086304,496.943451 808.970459,497.215088 
	C813.693542,497.477753 817.079041,499.877777 818.927856,504.259094 
	C821.296692,509.872772 821.317627,515.522339 818.798828,521.510498 
z"/>
</svg>